<?xml version="1.0" encoding="utf-8"?>
<!-- Generator: Adobe Illustrator 26.0.2, SVG Export Plug-In . SVG Version: 6.00 Build 0)  -->
<svg version="1.1" id="Layer_1" xmlns="http://www.w3.org/2000/svg" xmlns:xlink="http://www.w3.org/1999/xlink" x="0px" y="0px"
	 viewBox="0 0 934 17" style="enable-background:new 0 0 934 17;" xml:space="preserve">
<g>
	<path d="M915.31,17c-4.96,0-7.41-4.19-9.78-8.25C903.21,4.77,901.01,1,896.62,1c-4.38,0-6.58,3.77-8.91,7.75
		c-2.37,4.06-4.82,8.25-9.78,8.25s-7.41-4.19-9.78-8.25C865.83,4.77,863.63,1,859.25,1c-4.38,0-6.58,3.77-8.91,7.75
		c-2.37,4.06-4.81,8.25-9.77,8.25c-4.96,0-7.41-4.19-9.77-8.25C828.46,4.77,826.27,1,821.88,1c-4.38,0-6.58,3.77-8.91,7.75
		c-2.37,4.05-4.82,8.25-9.77,8.25c-4.96,0-7.41-4.19-9.77-8.25C791.1,4.77,788.9,1,784.52,1s-6.58,3.77-8.91,7.75
		c-2.37,4.05-4.81,8.25-9.77,8.25s-7.41-4.19-9.77-8.25C753.73,4.77,751.54,1,747.15,1s-6.58,3.77-8.91,7.75
		c-2.37,4.05-4.81,8.25-9.77,8.25s-7.4-4.19-9.77-8.25C716.37,4.77,714.17,1,709.79,1c-4.38,0-6.58,3.77-8.91,7.75
		c-2.37,4.06-4.81,8.25-9.77,8.25c-4.96,0-7.41-4.19-9.77-8.25C679.01,4.77,676.81,1,672.43,1s-6.58,3.77-8.91,7.75
		c-2.37,4.06-4.81,8.25-9.77,8.25s-7.41-4.19-9.77-8.25C641.65,4.77,639.45,1,635.07,1c-4.38,0-6.58,3.77-8.91,7.75
		c-2.37,4.05-4.81,8.25-9.77,8.25s-7.41-4.19-9.77-8.25C604.29,4.77,602.09,1,597.71,1s-6.58,3.77-8.91,7.75
		c-2.37,4.06-4.81,8.25-9.77,8.25s-7.4-4.19-9.77-8.25C566.93,4.77,564.73,1,560.34,1c-4.38,0-6.58,3.77-8.91,7.75
		c-2.37,4.06-4.81,8.25-9.77,8.25s-7.41-4.19-9.77-8.25C529.56,4.77,527.37,1,522.98,1c-4.38,0-6.58,3.77-8.91,7.75
		c-2.37,4.06-4.81,8.25-9.77,8.25c-4.96,0-7.4-4.19-9.77-8.25C492.21,4.77,490.01,1,485.62,1s-6.58,3.77-8.91,7.75
		c-2.37,4.06-4.81,8.25-9.77,8.25s-7.4-4.19-9.77-8.25C454.85,4.77,452.65,1,448.27,1s-6.58,3.77-8.91,7.75
		c-2.37,4.06-4.81,8.25-9.77,8.25c-4.96,0-7.41-4.19-9.77-8.25C417.49,4.77,415.29,1,410.91,1c-4.38,0-6.58,3.77-8.91,7.75
		c-2.37,4.06-4.81,8.25-9.77,8.25c-4.96,0-7.41-4.19-9.77-8.25C380.13,4.77,377.93,1,373.55,1c-4.38,0-6.58,3.77-8.91,7.75
		c-2.37,4.06-4.81,8.25-9.77,8.25c-4.96,0-7.4-4.19-9.77-8.25C342.77,4.77,340.57,1,336.19,1c-4.38,0-6.58,3.77-8.91,7.75
		c-2.37,4.06-4.81,8.25-9.77,8.25s-7.4-4.19-9.77-8.25C305.42,4.77,303.22,1,298.84,1c-4.38,0-6.58,3.77-8.91,7.75
		c-2.37,4.05-4.81,8.25-9.77,8.25c-4.96,0-7.4-4.19-9.77-8.25C268.06,4.77,265.87,1,261.49,1c-4.38,0-6.58,3.77-8.91,7.75
		c-2.37,4.06-4.81,8.25-9.77,8.25c-4.96,0-7.4-4.19-9.77-8.25C230.71,4.77,228.51,1,224.13,1c-4.38,0-6.58,3.77-8.91,7.75
		c-2.37,4.06-4.81,8.25-9.77,8.25c-4.96,0-7.4-4.19-9.77-8.25C193.36,4.77,191.16,1,186.78,1c-4.38,0-6.58,3.77-8.91,7.75
		c-2.37,4.06-4.81,8.25-9.77,8.25c-4.96,0-7.4-4.19-9.77-8.25c-2.33-3.99-4.52-7.75-8.9-7.75c-4.38,0-6.58,3.77-8.91,7.75
		c-2.37,4.05-4.81,8.25-9.77,8.25c-4.96,0-7.41-4.19-9.77-8.25C118.65,4.77,116.46,1,112.07,1c-4.38,0-6.58,3.77-8.91,7.75
		C100.8,12.81,98.35,17,93.39,17c-4.96,0-7.4-4.19-9.77-8.25C81.3,4.77,79.1,1,74.72,1s-6.58,3.77-8.91,7.75
		C63.44,12.81,60.99,17,56.04,17c-4.96,0-7.4-4.19-9.77-8.25C43.94,4.77,41.74,1,37.36,1c-4.38,0-6.58,3.77-8.91,7.75
		C26.08,12.81,23.64,17,18.68,17c-4.96,0-7.4-4.19-9.77-8.25C6.58,4.77,4.38,1,0,1V0c4.96,0,7.4,4.19,9.77,8.25
		C12.1,12.23,14.3,16,18.68,16c4.38,0,6.58-3.77,8.91-7.75C29.95,4.19,32.4,0,37.36,0c4.96,0,7.4,4.19,9.77,8.25
		c2.33,3.99,4.53,7.75,8.91,7.75c4.38,0,6.58-3.77,8.91-7.75C67.31,4.19,69.76,0,74.72,0s7.4,4.19,9.77,8.25
		c2.33,3.99,4.53,7.75,8.91,7.75c4.38,0,6.58-3.77,8.91-7.75c2.37-4.05,4.81-8.25,9.77-8.25c4.96,0,7.4,4.19,9.77,8.25
		c2.33,3.99,4.53,7.75,8.91,7.75c4.38,0,6.58-3.77,8.91-7.75c2.37-4.06,4.81-8.25,9.77-8.25c4.96,0,7.4,4.19,9.77,8.25
		c2.33,3.99,4.52,7.75,8.9,7.75c4.38,0,6.58-3.77,8.91-7.75c2.37-4.05,4.81-8.25,9.77-8.25c4.96,0,7.4,4.19,9.77,8.25
		c2.33,3.99,4.52,7.75,8.91,7.75c4.38,0,6.58-3.77,8.91-7.75c2.37-4.06,4.81-8.25,9.77-8.25c4.96,0,7.4,4.19,9.77,8.25
		c2.33,3.99,4.52,7.75,8.91,7.75c4.38,0,6.58-3.77,8.91-7.75c2.37-4.05,4.81-8.25,9.77-8.25c4.96,0,7.4,4.19,9.77,8.25
		c2.33,3.99,4.52,7.75,8.91,7.75c4.38,0,6.58-3.77,8.91-7.75c2.37-4.06,4.81-8.25,9.77-8.25c4.96,0,7.4,4.19,9.77,8.25
		c2.33,3.99,4.52,7.75,8.91,7.75s6.58-3.77,8.91-7.75c2.37-4.05,4.81-8.25,9.77-8.25c4.96,0,7.4,4.19,9.77,8.25
		c2.33,3.99,4.53,7.75,8.91,7.75c4.38,0,6.58-3.77,8.91-7.75c2.37-4.05,4.81-8.25,9.77-8.25c4.96,0,7.41,4.19,9.77,8.25
		c2.33,3.99,4.53,7.75,8.91,7.75c4.38,0,6.58-3.77,8.91-7.75C403.5,4.19,405.95,0,410.91,0c4.96,0,7.4,4.19,9.77,8.25
		c2.33,3.99,4.53,7.75,8.91,7.75c4.38,0,6.58-3.77,8.91-7.75c2.37-4.06,4.81-8.25,9.77-8.25s7.4,4.19,9.77,8.25
		c2.33,3.99,4.53,7.75,8.91,7.75s6.58-3.77,8.91-7.75c2.37-4.06,4.81-8.25,9.77-8.25s7.4,4.19,9.77,8.25
		c2.33,3.99,4.53,7.75,8.91,7.75c4.38,0,6.58-3.77,8.91-7.75c2.37-4.06,4.81-8.25,9.77-8.25c4.96,0,7.41,4.19,9.77,8.25
		c2.33,3.99,4.53,7.75,8.91,7.75s6.58-3.77,8.91-7.75c2.37-4.06,4.81-8.25,9.77-8.25c4.96,0,7.41,4.19,9.77,8.25
		c2.33,3.99,4.53,7.75,8.91,7.75s6.58-3.77,8.91-7.75C590.3,4.19,592.75,0,597.71,0s7.4,4.19,9.77,8.25
		C609.8,12.23,612,16,616.39,16s6.58-3.77,8.91-7.75c2.37-4.05,4.81-8.25,9.77-8.25c4.96,0,7.41,4.19,9.77,8.25
		c2.33,3.99,4.53,7.75,8.91,7.75c4.38,0,6.58-3.77,8.91-7.75c2.37-4.06,4.81-8.25,9.77-8.25c4.96,0,7.41,4.19,9.77,8.25
		c2.33,3.99,4.53,7.75,8.91,7.75c4.38,0,6.58-3.77,8.91-7.75c2.37-4.06,4.81-8.25,9.77-8.25c4.96,0,7.4,4.19,9.77,8.25
		c2.33,3.99,4.53,7.75,8.91,7.75s6.58-3.77,8.91-7.75c2.37-4.05,4.81-8.25,9.77-8.25s7.41,4.19,9.77,8.25
		c2.33,3.99,4.53,7.75,8.91,7.75s6.58-3.77,8.91-7.75c2.37-4.05,4.81-8.25,9.77-8.25s7.41,4.19,9.77,8.25
		c2.33,3.99,4.53,7.75,8.91,7.75c4.38,0,6.58-3.77,8.91-7.75c2.37-4.05,4.82-8.25,9.77-8.25s7.41,4.19,9.77,8.25
		c2.33,3.99,4.53,7.75,8.91,7.75c4.38,0,6.58-3.77,8.91-7.75c2.37-4.06,4.81-8.25,9.77-8.25c4.96,0,7.41,4.19,9.77,8.25
		c2.33,3.99,4.53,7.75,8.91,7.75s6.58-3.77,8.91-7.75c2.37-4.06,4.82-8.25,9.78-8.25s7.41,4.19,9.78,8.25
		c2.33,3.99,4.53,7.75,8.91,7.75s6.58-3.77,8.91-7.75C926.59,4.19,929.04,0,934,0v1c-4.39,0-6.58,3.77-8.91,7.75
		C922.72,12.81,920.27,17,915.31,17z"/>
</g>
</svg>
